<svg fill="none" height="256" viewBox="0 0 256 256" width="256" xmlns="http://www.w3.org/2000/svg"><g fill="#ff0070"><path d="m81 0v28h-53v53h-28v-81z"/><path d="m256 81v-81h-81v28h53v53z"/><path d="m175 256h81v-81h-28v53h-53z"/><path d="m.00001062 175-.00001062 81h81v-28h-53v-53z"/><path clip-rule="evenodd" d="m128 74c-29.8234 0-54 24.1766-54 54 0 29.823 24.1766 54 54 54 29.823 0 54-24.177 54-54 0-29.8234-24.177-54-54-54zm-26 54c0-14.359 11.641-26 26-26s26 11.641 26 26-11.641 26-26 26-26-11.641-26-26z" fill-rule="evenodd"/></g></svg>